<svg xmlns="http://www.w3.org/2000/svg" viewBox="0 0 36 36"><defs><style>.cls-1{isolation:isolate;}.cls-2{fill:#084fff;}.cls-3{fill:#000086;mix-blend-mode:multiply;}</style></defs><g class="cls-1"><g id="Calque_1" data-name="Calque 1"><path class="cls-2" d="M18.24,18.91c2.05-.71,4.27-2.72,4.27-6.6,0-4.82-3-7.79-8.59-7.79H1.23v31H14.14c3.44,0,6.52-1.3,8.18-4a9.67,9.67,0,0,0,1.27-5A7.34,7.34,0,0,0,18.24,18.91ZM16.36,32a1.32,1.32,0,0,1-1.16,1.43H9.62A1.32,1.32,0,0,1,8.46,32V17.67a4,4,0,0,1,2.55-4V8.48H11a.38.38,0,0,1-.34-.42V6.51A.39.39,0,0,1,11,6.09h2.91a.39.39,0,0,1,.35.42V8.06a.39.39,0,0,1-.35.42H13.8v5.21a4,4,0,0,1,2.56,4Z"/><path class="cls-3" d="M34.77,22.41c0,6.2-4.34,9.07-9.45,9.07h-9V17.67a4,4,0,0,0-2.56-4V8.48h.06a.39.39,0,0,0,.35-.42V6.51a.39.39,0,0,0-.35-.42H12.41V.49H25.1c5.65,0,8.59,3,8.59,7.79,0,3.88-2.22,5.9-4.27,6.6A7.35,7.35,0,0,1,34.77,22.41Z"/></g></g></svg>